<?xml version="1.0" encoding="UTF-8" standalone="no"?><svg xmlns="http://www.w3.org/2000/svg" xmlns:xlink="http://www.w3.org/1999/xlink" contentScriptType="application/ecmascript" contentStyleType="text/css" height="217px" preserveAspectRatio="none" style="width:829px;height:217px;" version="1.1" viewBox="0 0 829 217" width="829px" zoomAndPan="magnify"><defs><filter height="300%" id="f3gefzzo4qumk" width="300%" x="-1" y="-1"><feGaussianBlur result="blurOut" stdDeviation="2.0"/><feColorMatrix in="blurOut" result="blurOut2" type="matrix" values="0 0 0 0 0 0 0 0 0 0 0 0 0 0 0 0 0 0 .4 0"/><feOffset dx="4.0" dy="4.0" in="blurOut2" result="blurOut3"/><feBlend in="SourceGraphic" in2="blurOut3" mode="normal"/></filter></defs><g><!--MD5=[8fc3522a43f8c7199df5e09e5bb0188e]
entity user--><ellipse cx="20.5" cy="17.5" fill="#FEFECE" filter="url(#f3gefzzo4qumk)" rx="8" ry="8" style="stroke: #A80036; stroke-width: 1.5;"/><path d="M20.5,25.5 L20.5,52.5 M7.5,33.5 L33.5,33.5 M20.5,52.5 L7.5,67.5 M20.5,52.5 L33.5,67.5 " fill="none" filter="url(#f3gefzzo4qumk)" style="stroke: #A80036; stroke-width: 1.5;"/><text fill="#000000" font-family="sans-serif" font-size="14" lengthAdjust="spacingAndGlyphs" textLength="29" x="6" y="87.5332">User</text><!--MD5=[b165ca7cce796f881c879adda4a6bef9]
entity s3--><polygon fill="#FEFECE" filter="url(#f3gefzzo4qumk)" points="192.5,20.5,238.5,20.5,245.5,41.5,286.5,41.5,286.5,78.7188,192.5,78.7188,192.5,20.5" style="stroke: #000000; stroke-width: 1.5;"/><line style="stroke: #000000; stroke-width: 1.5;" x1="192.5" x2="245.5" y1="41.5" y2="41.5"/><text fill="#000000" font-family="sans-serif" font-size="14" lengthAdjust="spacingAndGlyphs" textLength="64" x="202.5" y="63.0332">S3 Bucket</text><!--MD5=[04bbb563844601d57f0c0b609e30db01]
entity process_lambda--><rect fill="#FEFECE" filter="url(#f3gefzzo4qumk)" height="37.6094" style="stroke: #000000; stroke-width: 1.5;" width="172" x="443.5" y="30.5"/><text fill="#000000" font-family="sans-serif" font-size="14" lengthAdjust="spacingAndGlyphs" textLength="152" x="453.5" y="55.0332">Lambda: Process Image</text><!--MD5=[2ac5db6327a776a8a2f1d75f63e24876]
entity notify_lambda--><rect fill="#FEFECE" filter="url(#f3gefzzo4qumk)" height="37.6094" style="stroke: #000000; stroke-width: 1.5;" width="114" x="189.5" y="169"/><text fill="#000000" font-family="sans-serif" font-size="14" lengthAdjust="spacingAndGlyphs" textLength="94" x="199.5" y="193.5332">Lambda: Notify</text><!--MD5=[c849e5b705cd45c4ea55fb581c998461]
entity store_lambda--><rect fill="#FEFECE" filter="url(#f3gefzzo4qumk)" height="37.6094" style="stroke: #000000; stroke-width: 1.5;" width="113" x="395" y="169"/><text fill="#000000" font-family="sans-serif" font-size="14" lengthAdjust="spacingAndGlyphs" textLength="93" x="405" y="193.5332">Lambda: Store</text><!--MD5=[52d0c115c7d06b979b7f69659773ccc0]
link user to s3--><path d="M35.2093,49.5 C65.8066,49.5 137.596,49.5 187.361,49.5 " fill="none" id="user-&gt;s3" style="stroke: #A80036; stroke-width: 1.0;"/><polygon fill="#A80036" points="192.408,49.5,183.408,45.5,187.408,49.5,183.408,53.5,192.408,49.5" style="stroke: #A80036; stroke-width: 1.0;"/><text fill="#000000" font-family="sans-serif" font-size="13" lengthAdjust="spacingAndGlyphs" textLength="79" x="74.25" y="42.9951">Upload Image</text><!--MD5=[ee2a77310c38ca232414361d7f195f1a]
link s3 to process_lambda--><path d="M286.739,49.5 C327.626,49.5 387.925,49.5 438.196,49.5 " fill="none" id="s3-&gt;process_lambda" style="stroke: #A80036; stroke-width: 1.0;"/><polygon fill="#A80036" points="443.339,49.5,434.339,45.5,438.339,49.5,434.339,53.5,443.339,49.5" style="stroke: #A80036; stroke-width: 1.0;"/><text fill="#000000" font-family="sans-serif" font-size="13" lengthAdjust="spacingAndGlyphs" textLength="120" x="305" y="42.9951">Add Image Metadata</text><!--MD5=[df545d21d033242268beba121572c46d]
link process_lambda to notify_lambda--><path d="M504.476,68.519 C472.639,91.224 419.185,128.5465 397.5,139 C369.391,152.5505 336.543,163.5171 308.676,171.5291 " fill="none" id="process_lambda-&gt;notify_lambda" style="stroke: #A80036; stroke-width: 1.0;"/><polygon fill="#A80036" points="303.533,172.9906,313.2837,174.3774,308.3425,171.6235,311.0964,166.6822,303.533,172.9906" style="stroke: #A80036; stroke-width: 1.0;"/><text fill="#000000" font-family="sans-serif" font-size="13" lengthAdjust="spacingAndGlyphs" textLength="176" x="428.5" y="135.4951">Trigger Processing Notification</text><!--MD5=[8fcdfa3c651d0bf9d0f507362aace54e]
link notify_lambda to user--><path d="M189.345,183.0156 C128.972,177.4767 39.6225,165.0324 18.5,139 C8.9302,127.2057 7.0472,111.3283 8.3424,96.278 " fill="none" id="notify_lambda-&gt;user" style="stroke: #A80036; stroke-width: 1.0;"/><polygon fill="#A80036" points="8.8969,91.213,3.941,99.7241,8.3526,96.1833,11.8934,100.5949,8.8969,91.213" style="stroke: #A80036; stroke-width: 1.0;"/><text fill="#000000" font-family="sans-serif" font-size="13" lengthAdjust="spacingAndGlyphs" textLength="220" x="19.5" y="135.4951">Notify: Image Processed Successfully</text><!--MD5=[bb4ea15d33579d23b88f5e30c54c1e47]
link process_lambda to store_lambda--><path d="M568.395,68.547 C599.685,85.587 635.412,112.4248 615.5,139 C602.936,155.7685 554.304,168.6462 513.233,176.8215 " fill="none" id="process_lambda-&gt;store_lambda" style="stroke: #A80036; stroke-width: 1.0;"/><polygon fill="#A80036" points="508.265,177.7951,517.8668,179.9872,513.1714,176.8323,516.3263,172.1369,508.265,177.7951" style="stroke: #A80036; stroke-width: 1.0;"/><text fill="#000000" font-family="sans-serif" font-size="13" lengthAdjust="spacingAndGlyphs" textLength="196" x="621.5" y="135.4951">Store Processed Image in Archive</text><!--MD5=[584fdf6672e5c890b053d465881dbbe2]
link store_lambda to s3--><path d="M394.735,179.6064 C344.804,171.9401 277.234,158.3484 258.5,139 C244.512,124.5525 239.76,102.435 238.507,83.925 " fill="none" id="store_lambda-&gt;s3" style="stroke: #A80036; stroke-width: 1.0;"/><polygon fill="#A80036" points="238.241,78.81,234.7144,88.0058,238.501,83.8032,242.7036,87.5898,238.241,78.81" style="stroke: #A80036; stroke-width: 1.0;"/><text fill="#000000" font-family="sans-serif" font-size="13" lengthAdjust="spacingAndGlyphs" textLength="133" x="259.5" y="135.4951">Save Processed Image</text><!--MD5=[46a95b40a52439f1e28ddf853bf9b703]
@startuml Event-driven Application
actor "User" as user
folder "S3 Bucket" as s3
rectangle "Lambda: Process Image" as process_lambda
rectangle "Lambda: Notify" as notify_lambda
rectangle "Lambda: Store" as store_lambda

user -> s3: Upload Image
s3 -> process_lambda: Add Image Metadata
process_lambda - -> notify_lambda: Trigger Processing Notification
notify_lambda -> user: Notify: Image Processed Successfully 
process_lambda - -> store_lambda: Store Processed Image in Archive
store_lambda -> s3: Save Processed Image

@enduml

PlantUML version 1.2020.10(Sun May 17 05:35:57 EDT 2020)
(GPL source distribution)
Java Runtime: Java(TM) SE Runtime Environment
JVM: Java HotSpot(TM) 64-Bit Server VM
Java Version: 1.8.0_221-b11
Operating System: Windows 10
Default Encoding: Cp1252
Language: en
Country: US
--></g></svg>