<?xml version="1.0" encoding="UTF-8" standalone="no"?><svg xmlns="http://www.w3.org/2000/svg" xmlns:xlink="http://www.w3.org/1999/xlink" contentScriptType="application/ecmascript" contentStyleType="text/css" height="101px" preserveAspectRatio="none" style="width:613px;height:101px;" version="1.1" viewBox="0 0 613 101" width="613px" zoomAndPan="magnify"><defs><filter height="300%" id="f15gwxex0su9wx" width="300%" x="-1" y="-1"><feGaussianBlur result="blurOut" stdDeviation="2.0"/><feColorMatrix in="blurOut" result="blurOut2" type="matrix" values="0 0 0 0 0 0 0 0 0 0 0 0 0 0 0 0 0 0 .4 0"/><feOffset dx="4.0" dy="4.0" in="blurOut2" result="blurOut3"/><feBlend in="SourceGraphic" in2="blurOut3" mode="normal"/></filter></defs><g><!--MD5=[8fc3522a43f8c7199df5e09e5bb0188e]
entity user--><ellipse cx="20.5" cy="17.5" fill="#FEFECE" filter="url(#f15gwxex0su9wx)" rx="8" ry="8" style="stroke: #A80036; stroke-width: 1.5;"/><path d="M20.5,25.5 L20.5,52.5 M7.5,33.5 L33.5,33.5 M20.5,52.5 L7.5,67.5 M20.5,52.5 L33.5,67.5 " fill="none" filter="url(#f15gwxex0su9wx)" style="stroke: #A80036; stroke-width: 1.5;"/><text fill="#000000" font-family="sans-serif" font-size="14" lengthAdjust="spacingAndGlyphs" textLength="29" x="6" y="87.5332">User</text><!--MD5=[7b30460008fc71f9986330c33ee2d290]
entity gateway--><path d="M211,28.5 L211,52.5 M211,40.5 L228,40.5 " fill="none" filter="url(#f15gwxex0su9wx)" style="stroke: #A80036; stroke-width: 2.0;"/><ellipse cx="240" cy="40.5" fill="#FEFECE" filter="url(#f15gwxex0su9wx)" rx="12" ry="12" style="stroke: #A80036; stroke-width: 2.0;"/><text fill="#000000" font-family="sans-serif" font-size="14" lengthAdjust="spacingAndGlyphs" textLength="80" x="191.5" y="71.0332">API Gateway</text><!--MD5=[3e93cece59fb52622bb61887c05af2cb]
entity lambda--><rect fill="#FEFECE" filter="url(#f15gwxex0su9wx)" height="37.6094" style="stroke: #000000; stroke-width: 1.5;" width="160" x="442.5" y="30.5"/><text fill="#000000" font-family="sans-serif" font-size="14" lengthAdjust="spacingAndGlyphs" textLength="140" x="452.5" y="55.0332">Lambda: API Endpoint</text><!--MD5=[a7d85b441caa438fbc6b4dc20b29d850]
link user to gateway--><path d="M35.0029,49.5 C65.7261,49.5 138.465,49.5 186.302,49.5 " fill="none" id="user-&gt;gateway" style="stroke: #A80036; stroke-width: 1.0;"/><polygon fill="#A80036" points="191.429,49.5,182.429,45.5,186.429,49.5,182.429,53.5,191.429,49.5" style="stroke: #A80036; stroke-width: 1.0;"/><text fill="#000000" font-family="sans-serif" font-size="13" lengthAdjust="spacingAndGlyphs" textLength="120" x="53.25" y="42.9951">Make HTTP Request</text><!--MD5=[2ddf5b9b168ed401783c71e9bd819658]
link gateway to user--><path d="M191.461,63.6475 C181.699,66.4876 171.2,69.0446 161.25,70.5 C119.033,76.6751 106.894,79.7854 65.25,70.5 C56.5098,68.5512 47.4601,64.7023 39.8052,60.8259 " fill="none" id="gateway-&gt;user" style="stroke: #A80036; stroke-width: 1.0; stroke-dasharray: 7.0,7.0;"/><polygon fill="#A80036" points="35.2345,58.4255,41.3428,66.1513,39.6612,60.7502,45.0623,59.0686,35.2345,58.4255" style="stroke: #A80036; stroke-width: 1.0;"/><text fill="#000000" font-family="sans-serif" font-size="13" lengthAdjust="spacingAndGlyphs" textLength="94" x="66.25" y="66.9951">HTTP Response</text><!--MD5=[8be8ca3ba76affcb62efb482c3e50524]
link gateway to lambda--><path d="M271.657,49.5 C314.176,49.5 382.562,49.5 437.199,49.5 " fill="none" id="gateway-&gt;lambda" style="stroke: #A80036; stroke-width: 1.0;"/><polygon fill="#A80036" points="442.443,49.5,433.443,45.5,437.443,49.5,433.443,53.5,442.443,49.5" style="stroke: #A80036; stroke-width: 1.0;"/><text fill="#000000" font-family="sans-serif" font-size="13" lengthAdjust="spacingAndGlyphs" textLength="134" x="290" y="42.9951">Forward HTTP Request</text><!--MD5=[2502443e6d5456d6455bcbcd7b1e49b2]
link lambda to gateway--><path d="M442.257,66.1291 C402.156,72.2204 352.934,76.3469 309,70.5 C298.431,69.0935 287.26,66.6529 276.789,63.9217 " fill="none" id="lambda-&gt;gateway" style="stroke: #A80036; stroke-width: 1.0; stroke-dasharray: 7.0,7.0;"/><polygon fill="#A80036" points="271.711,62.5608,279.3688,68.7542,276.5406,63.8551,281.4397,61.0269,271.711,62.5608" style="stroke: #A80036; stroke-width: 1.0;"/><text fill="#000000" font-family="sans-serif" font-size="13" lengthAdjust="spacingAndGlyphs" textLength="94" x="310" y="66.9951">HTTP Response</text><!--MD5=[de63fa34d30ca91b2ebed79afdd8643b]
@startuml Request-driven Application
actor "User" as user
boundary "API Gateway" as gateway
rectangle "Lambda: API Endpoint" as lambda

user -> gateway: Make HTTP Request
gateway -> lambda: Forward HTTP Request
lambda .> gateway: HTTP Response
gateway .> user: HTTP Response

@enduml

PlantUML version 1.2020.10(Sun May 17 05:35:57 EDT 2020)
(GPL source distribution)
Java Runtime: Java(TM) SE Runtime Environment
JVM: Java HotSpot(TM) 64-Bit Server VM
Java Version: 1.8.0_221-b11
Operating System: Windows 10
Default Encoding: Cp1252
Language: en
Country: US
--></g></svg>