<?xml version="1.0" encoding="UTF-8" standalone="no"?><svg xmlns="http://www.w3.org/2000/svg" xmlns:xlink="http://www.w3.org/1999/xlink" contentScriptType="application/ecmascript" contentStyleType="text/css" height="422px" preserveAspectRatio="none" style="width:1573px;height:422px;" version="1.1" viewBox="0 0 1573 422" width="1573px" zoomAndPan="magnify"><defs><filter height="300%" id="f18s41gtpjzbng" width="300%" x="-1" y="-1"><feGaussianBlur result="blurOut" stdDeviation="2.0"/><feColorMatrix in="blurOut" result="blurOut2" type="matrix" values="0 0 0 0 0 0 0 0 0 0 0 0 0 0 0 0 0 0 .4 0"/><feOffset dx="4.0" dy="4.0" in="blurOut2" result="blurOut3"/><feBlend in="SourceGraphic" in2="blurOut3" mode="normal"/></filter></defs><g><!--MD5=[c8375d0abf05781a4d00ac7db9cff037]
cluster host--><polygon fill="#FFFFFF" filter="url(#f18s41gtpjzbng)" points="480,42,490,32,1105,32,1105,287,1095,297,480,297,480,42" style="stroke: #000000; stroke-width: 1.5;"/><line style="stroke: #000000; stroke-width: 1.5;" x1="1095" x2="1104" y1="42" y2="33"/><line style="stroke: #000000; stroke-width: 1.5;" x1="480" x2="1095" y1="42" y2="42"/><line style="stroke: #000000; stroke-width: 1.5;" x1="1095" x2="1095" y1="42" y2="297"/><text fill="#000000" font-family="sans-serif" font-size="14" font-weight="bold" lengthAdjust="spacingAndGlyphs" textLength="32" x="772.5" y="59.5332">Host</text><!--MD5=[7c185b1ebc2d5c01e26fffe3c8b89260]
cluster Hypervisor--><polygon fill="#FFFFFF" filter="url(#f18s41gtpjzbng)" points="512,99,522,89,1073,89,1073,247,1063,257,512,257,512,99" style="stroke: #000000; stroke-width: 1.5;"/><line style="stroke: #000000; stroke-width: 1.5;" x1="1063" x2="1072" y1="99" y2="90"/><line style="stroke: #000000; stroke-width: 1.5;" x1="512" x2="1063" y1="99" y2="99"/><line style="stroke: #000000; stroke-width: 1.5;" x1="1063" x2="1063" y1="99" y2="257"/><text fill="#000000" font-family="sans-serif" font-size="14" font-weight="bold" lengthAdjust="spacingAndGlyphs" textLength="77" x="750" y="116.5332">Hypervisor</text><!--MD5=[88656e78e5bedad418341b6ececa151e]
cluster AWS--><path d="M1162.4648,108.5574 C1169.6336,93.7365 1182.3474,93.0609 1190.2274,107.8914 C1197.1779,94.9056 1208.4642,96.8795 1214.4028,108.8709 C1222.2452,96.2143 1231.9198,93.7232 1242.7825,105.3396 C1248.7438,92.7796 1260.5911,94.219 1267.6421,104.1343 C1274.6805,90.5022 1284.7639,89.5719 1294.6052,101.1345 C1303.6557,89.1579 1312.9572,90.0351 1321.6465,101.5502 C1327.9363,88.5701 1335.9562,90.5609 1344.6358,98.9832 C1352.6034,88.1907 1365.3792,87.5636 1372.2596,100.2617 C1382.0731,84.7846 1391.9201,86.7843 1401.2355,100.7518 C1410.5971,91.1105 1419.1518,90.9914 1424.9089,104.4464 C1433.8271,94.5512 1442.1119,94.1459 1449.6535,106.0118 C1457.7499,91.69 1467.3834,92.7693 1476.3393,105.153 C1484.5199,93.4822 1498.399,93.1941 1503.9499,107.9051 C1515.2642,96.3195 1528.8515,100.4706 1534,115 C1536.4559,114.9835 1537.5028,116.1725 1537.015,118.6126 C1550.6865,128.3794 1550.545,138.0067 1537.9193,148.5673 C1559.278,155.571 1560.8537,168.6858 1545.6485,183.7273 C1560.7352,196.8484 1561.9911,209.6734 1541.9814,219.1624 C1552.3231,236.6878 1549.7997,251.329 1527,255 C1528.5523,254.9194 1529.8352,255.965 1528.8684,257.6563 C1521.7476,270.7617 1510.4973,270.7965 1502.5289,258.5365 C1494.0689,270.3843 1485.6676,272.0938 1476.0844,259.7652 C1469.3844,269.4801 1461.092,271.4542 1453.1122,261.2405 C1443.1289,273.9989 1434.0672,274.7036 1424.5952,260.6958 C1417.8599,274.6112 1409.3126,274.4624 1399.7697,263.4972 C1390.6858,277.5742 1381.2421,276.6399 1371.9488,263.713 C1363.0868,275.5799 1353.4048,275.158 1345.1714,263.0121 C1337.3843,275.7995 1328.7764,279.9136 1318.0483,265.9994 C1309.5431,274.7425 1300.6183,273.1871 1294.7435,262.7957 C1288.0111,277.4017 1276.8108,277.1696 1268.7576,264.0328 C1259.4575,275.1278 1246.7283,275.2387 1241.3462,259.9606 C1233.1426,270.9937 1222.1886,274.3671 1214.4119,259.5164 C1206.8285,272.7744 1195.5627,270.9086 1188.7491,258.7395 C1173.6573,273.5053 1159.1527,265.3932 1154,248 C1155.7991,249.1412 1155.8678,250.4416 1154.4289,251.9357 C1135.9229,241.2345 1137.5496,225.0184 1155.7313,215.6335 C1139.3927,209.2863 1139.5263,196.4417 1151.2722,185.8849 C1135.5789,172.4539 1137.1601,160.9941 1153.2923,149.3214 C1138.3128,134.3142 1141.677,116.6088 1161,108 C1161.7371,107.6031 1162.2059,107.6974 1162.4648,108.5574 " fill="#FFFFFF" style="stroke: #000000; stroke-width: 1.5;"/><text fill="#000000" font-family="sans-serif" font-size="14" font-weight="bold" lengthAdjust="spacingAndGlyphs" textLength="31" x="1328.5" y="127.5332">AWS</text><!--MD5=[addf083e429417be7ad7bace6a60d70a]
cluster S3--><rect fill="#FFFFFF" filter="url(#f18s41gtpjzbng)" height="90" style="stroke: #000000; stroke-width: 1.5;" width="129" x="1170" y="147"/><path d="M1197,148 L1197,157.6094 L1187,167.6094 L1170,167.6094 " fill="none" style="stroke: #000000; stroke-width: 1.5;"/><text fill="#000000" font-family="sans-serif" font-size="14" font-weight="bold" lengthAdjust="spacingAndGlyphs" textLength="17" x="1173" y="162.5332">S3</text><!--MD5=[b615aeaa4e55d921f7a21cb80bd8c8e3]
cluster Glacier--><rect fill="#FFFFFF" filter="url(#f18s41gtpjzbng)" height="90" style="stroke: #000000; stroke-width: 1.5;" width="129" x="1389" y="147"/><path d="M1449,148 L1449,157.6094 L1439,167.6094 L1389,167.6094 " fill="none" style="stroke: #000000; stroke-width: 1.5;"/><text fill="#000000" font-family="sans-serif" font-size="14" font-weight="bold" lengthAdjust="spacingAndGlyphs" textLength="50" x="1392" y="162.5332">Glacier</text><!--MD5=[1e3f021e2f2cff51b098261ad8b768e5]
entity tape--><rect fill="#FEFECE" filter="url(#f18s41gtpjzbng)" height="37.6094" style="stroke: #A80036; stroke-width: 1.5;" width="90" x="541.5" y="130"/><text fill="#000000" font-family="sans-serif" font-size="14" lengthAdjust="spacingAndGlyphs" textLength="70" x="551.5" y="154.5332">Tape Drive</text><!--MD5=[7df06d59e0e85b4a9de4fb7746418da5]
entity changer--><rect fill="#FEFECE" filter="url(#f18s41gtpjzbng)" height="37.6094" style="stroke: #A80036; stroke-width: 1.5;" width="117" x="528" y="203"/><text fill="#000000" font-family="sans-serif" font-size="14" lengthAdjust="spacingAndGlyphs" textLength="97" x="538" y="227.5332">Media Changer</text><!--MD5=[107003500c5c42cbbef62457b4e1bbc7]
entity volume--><rect fill="#FEFECE" filter="url(#f18s41gtpjzbng)" height="37.6094" rx="35" ry="35" style="stroke: #000000; stroke-width: 1.5;" width="121" x="737.5" y="183"/><text fill="#000000" font-family="sans-serif" font-size="14" lengthAdjust="spacingAndGlyphs" textLength="101" x="747.5" y="207.5332">Volume Storage</text><!--MD5=[0f94bc512f7c4f2c54039f460516e1c2]
entity buffer--><rect fill="#FEFECE" filter="url(#f18s41gtpjzbng)" height="37.6094" rx="35" ry="35" style="stroke: #000000; stroke-width: 1.5;" width="106" x="951" y="183"/><text fill="#000000" font-family="sans-serif" font-size="14" lengthAdjust="spacingAndGlyphs" textLength="86" x="961" y="207.5332">Upload Buffer</text><!--MD5=[c62c06f308760bd032ead353d7903255]
entity s3_tape--><rect fill="#FEFECE" filter="url(#f18s41gtpjzbng)" height="37.6094" rx="35" ry="35" style="stroke: #000000; stroke-width: 1.5;" width="97" x="1186" y="183"/><text fill="#000000" font-family="sans-serif" font-size="14" lengthAdjust="spacingAndGlyphs" textLength="77" x="1196" y="207.5332">Virtual Tape</text><!--MD5=[5135f002f33578606d15ffd4ec1b2d9d]
entity glacier_tape--><rect fill="#FEFECE" filter="url(#f18s41gtpjzbng)" height="37.6094" rx="35" ry="35" style="stroke: #000000; stroke-width: 1.5;" width="97" x="1405" y="183"/><text fill="#000000" font-family="sans-serif" font-size="14" lengthAdjust="spacingAndGlyphs" textLength="77" x="1415" y="207.5332">Virtual Tape</text><!--MD5=[4541fb81c80c07473fe4b07432ef0971]
entity app--><polygon fill="#FEFECE" filter="url(#f18s41gtpjzbng)" points="6,275,16,265,161,265,161,302.6094,151,312.6094,6,312.6094,6,275" style="stroke: #000000; stroke-width: 1.5;"/><line style="stroke: #000000; stroke-width: 1.5;" x1="151" x2="160" y1="275" y2="266"/><line style="stroke: #000000; stroke-width: 1.5;" x1="6" x2="151" y1="275" y2="275"/><line style="stroke: #000000; stroke-width: 1.5;" x1="151" x2="151" y1="275" y2="312.6094"/><text fill="#000000" font-family="sans-serif" font-size="14" lengthAdjust="spacingAndGlyphs" textLength="115" x="21" y="299.5332">Application Server</text><!--MD5=[4fc509e7cb4a1e84b57c31bc7e09752e]
entity backup--><polygon fill="#FEFECE" filter="url(#f18s41gtpjzbng)" points="247,275,257,265,400,265,400,302.6094,390,312.6094,247,312.6094,247,275" style="stroke: #000000; stroke-width: 1.5;"/><line style="stroke: #000000; stroke-width: 1.5;" x1="390" x2="399" y1="275" y2="266"/><line style="stroke: #000000; stroke-width: 1.5;" x1="247" x2="390" y1="275" y2="275"/><line style="stroke: #000000; stroke-width: 1.5;" x1="390" x2="390" y1="275" y2="312.6094"/><text fill="#000000" font-family="sans-serif" font-size="14" lengthAdjust="spacingAndGlyphs" textLength="113" x="262" y="299.5332">Backup Appliance</text><!--MD5=[a5a6ae0ba01c8a4589ab26bd33e87aad]
entity storage--><rect fill="#FEFECE" filter="url(#f18s41gtpjzbng)" height="90.4375" rx="35" ry="35" style="stroke: #000000; stroke-width: 1.5;" width="184" x="706" y="321"/><text fill="#000000" font-family="sans-serif" font-size="14" font-weight="bold" lengthAdjust="spacingAndGlyphs" textLength="128" x="716" y="345.5332">Storage Appliance</text><text fill="#000000" font-family="sans-serif" font-size="14" lengthAdjust="spacingAndGlyphs" textLength="138" x="716" y="363.1426">Storage Area Network</text><text fill="#000000" font-family="sans-serif" font-size="14" lengthAdjust="spacingAndGlyphs" textLength="151" x="716" y="380.752">Direct Attached Storage</text><text fill="#000000" font-family="sans-serif" font-size="14" lengthAdjust="spacingAndGlyphs" textLength="164" x="716" y="398.3613">Network Attached Storage</text><!--MD5=[03c180b6ebac8cc3af976d12e994d492]
link tape to volume--><path d="M636.808,161.474 C665.375,168.701 701.672,177.884 732.489,185.68 " fill="none" id="tape-volume" style="stroke: #A80036; stroke-width: 1.0;"/><polygon fill="#A80036" points="737.386,186.919,729.6413,180.8347,732.5386,185.6932,727.68,188.5905,737.386,186.919" style="stroke: #A80036; stroke-width: 1.0;"/><polygon fill="#A80036" points="631.674,160.175,639.4187,166.2593,636.5214,161.4008,641.38,158.5035,631.674,160.175" style="stroke: #A80036; stroke-width: 1.0;"/><!--MD5=[02544df1432aaece73b6f0d04633964b]
link changer to volume--><path d="M650.13,216.021 C676.051,213.546 706.1,210.678 732.24,208.182 " fill="none" id="changer-volume" style="stroke: #A80036; stroke-width: 1.0;"/><polygon fill="#A80036" points="737.414,207.688,728.0742,204.5625,732.4367,208.1637,728.8354,212.5262,737.414,207.688" style="stroke: #A80036; stroke-width: 1.0;"/><polygon fill="#A80036" points="645.024,216.508,654.3638,219.6335,650.0013,216.0323,653.6026,211.6698,645.024,216.508" style="stroke: #A80036; stroke-width: 1.0;"/><!--MD5=[5dda8826826bdcf8259c06785841e004]
link app to backup--><path d="M166.3,289 C190.68,289 217.376,289 241.692,289 " fill="none" id="app-backup" style="stroke: #A80036; stroke-width: 1.0;"/><polygon fill="#A80036" points="246.843,289,237.843,285,241.843,289,237.843,293,246.843,289" style="stroke: #A80036; stroke-width: 1.0;"/><polygon fill="#A80036" points="161.115,289,170.115,293,166.115,289,170.115,285,161.115,289" style="stroke: #A80036; stroke-width: 1.0;"/><text fill="#000000" font-family="sans-serif" font-size="13" lengthAdjust="spacingAndGlyphs" textLength="24" x="192" y="285.4951">ICSI</text><!--MD5=[0ba4cac5cd1352c72ef0e131db1e44c1]
link backup to host--><path d="M405.724,289 C424.5703,289 445.0236,289 465.1527,289 C467.6689,289 470.18,289 472.6822,289 C473.9333,289 475.1822,289 476.4285,289 C477.0516,289 477.674,289 478.2958,289 C478.6066,289 478.9173,289 479.2278,289 " fill="none" id="backup-host" style="stroke: #A80036; stroke-width: 1.0;"/><polygon fill="#A80036" points="479.2278,289,470.2278,285,474.2278,289,470.2278,293,479.2278,289" style="stroke: #A80036; stroke-width: 1.0;"/><polygon fill="#A80036" points="400.343,289,409.343,293,405.343,289,409.343,285,400.343,289" style="stroke: #A80036; stroke-width: 1.0;"/><text fill="#000000" font-family="sans-serif" font-size="13" lengthAdjust="spacingAndGlyphs" textLength="24" x="431" y="285.4951">ICSI</text><!--MD5=[08e755b18e47418dbca29638804dfbd6]
link host to storage--><path d="M609.6373,297.1364 C609.7723,297.186 609.9079,297.2358 610.0439,297.2858 C610.3159,297.3858 610.59,297.4865 610.866,297.588 C615.2819,299.211 620.2,301.0186 625.5103,302.9704 C646.7513,310.7773 674.2665,320.8904 701.014,330.7213 " fill="none" id="host-storage" style="stroke: #A80036; stroke-width: 1.0;"/><polygon fill="#A80036" points="705.848,332.4979,698.7815,325.6375,701.1552,330.7723,696.0205,333.146,705.848,332.4979" style="stroke: #A80036; stroke-width: 1.0;"/><polygon fill="#A80036" points="609.6373,297.1364,616.7049,303.9956,614.3304,298.8613,619.4647,296.4867,609.6373,297.1364" style="stroke: #A80036; stroke-width: 1.0;"/><!--MD5=[c474fcdea4827ac52dc768e433f19285]
link volume to buffer--><path d="M863.757,202 C890.152,202 920.403,202 945.951,202 " fill="none" id="volume-buffer" style="stroke: #A80036; stroke-width: 1.0;"/><polygon fill="#A80036" points="950.995,202,941.995,198,945.995,202,941.995,206,950.995,202" style="stroke: #A80036; stroke-width: 1.0;"/><polygon fill="#A80036" points="858.554,202,867.554,206,863.554,202,867.554,198,858.554,202" style="stroke: #A80036; stroke-width: 1.0;"/><!--MD5=[14f122d99777699d38d197226e6ebc5f]
link buffer to s3_tape--><path d="M1062.2,202 C1098.55,202 1145.26,202 1180.72,202 " fill="none" id="buffer-s3_tape" style="stroke: #A80036; stroke-width: 1.0;"/><polygon fill="#A80036" points="1185.87,202,1176.87,198,1180.87,202,1176.87,206,1185.87,202" style="stroke: #A80036; stroke-width: 1.0;"/><polygon fill="#A80036" points="1057.14,202,1066.14,206,1062.14,202,1066.14,198,1057.14,202" style="stroke: #A80036; stroke-width: 1.0;"/><!--MD5=[734ef0afe93218740b4a4cc941a67165]
link s3_tape to glacier_tape--><path d="M1283.27,211.099 C1293.69,212.722 1304.68,214.162 1315,215 C1340.69,217.087 1347.31,217.087 1373,215 C1381.54,214.306 1390.55,213.2 1399.31,211.918 " fill="none" id="s3_tape-&gt;glacier_tape" style="stroke: #A80036; stroke-width: 1.0;"/><polygon fill="#A80036" points="1404.73,211.099,1395.2282,208.5074,1399.7876,211.8559,1396.4392,216.4152,1404.73,211.099" style="stroke: #A80036; stroke-width: 1.0;"/><text fill="#000000" font-family="sans-serif" font-size="13" lengthAdjust="spacingAndGlyphs" textLength="52" x="1318" y="211.4951">Archiving</text><!--MD5=[fa6c59a1d8fe4f870fcd78fc5fed0105]
link glacier_tape to s3_tape--><path d="M1404.65,195.699 C1394.23,194.575 1383.26,193.579 1373,193 C1347.26,191.548 1340.74,191.548 1315,193 C1306.5,193.48 1297.52,194.245 1288.76,195.133 " fill="none" id="glacier_tape-&gt;s3_tape" style="stroke: #A80036; stroke-width: 1.0;"/><polygon fill="#A80036" points="1283.35,195.699,1292.7224,198.7253,1288.322,195.1705,1291.8768,190.7701,1283.35,195.699" style="stroke: #A80036; stroke-width: 1.0;"/><text fill="#000000" font-family="sans-serif" font-size="13" lengthAdjust="spacingAndGlyphs" textLength="56" x="1316" y="188.4951">Retrieving</text><!--MD5=[357c8f8a2fe011c32f132d02f4aba116]
@startuml Tape Gateway
left to right direction
node "Application Server" as app
node "Backup Appliance" as backup
node "Host" as host {
  node "Hypervisor" {
    agent "Tape Drive" as tape
    agent "Media Changer" as changer
    storage "Volume Storage" as volume
    storage "Upload Buffer" as buffer
    tape <- -> volume
    changer <- -> volume
  }
}
storage "**Storage Appliance**\nStorage Area Network\nDirect Attached Storage\nNetwork Attached Storage" as storage
cloud "AWS" {
  frame "S3" {
    storage "Virtual Tape" as s3_tape
  }
  frame "Glacier" {
    storage "Virtual Tape" as glacier_tape
  }
}

app <- -> backup: ICSI
backup <- -> host: ICSI
host <- -> storage
volume <- -> buffer
buffer <- -> s3_tape
s3_tape - -> glacier_tape: Archiving
glacier_tape - -> s3_tape: Retrieving

@enduml

PlantUML version 1.2020.10(Sun May 17 05:35:57 EDT 2020)
(GPL source distribution)
Java Runtime: Java(TM) SE Runtime Environment
JVM: Java HotSpot(TM) 64-Bit Server VM
Java Version: 1.8.0_221-b11
Operating System: Windows 10
Default Encoding: Cp1252
Language: en
Country: US
--></g></svg>