<?xml version="1.0" encoding="UTF-8" standalone="no"?><svg xmlns="http://www.w3.org/2000/svg" xmlns:xlink="http://www.w3.org/1999/xlink" contentScriptType="application/ecmascript" contentStyleType="text/css" height="349px" preserveAspectRatio="none" style="width:1206px;height:349px;" version="1.1" viewBox="0 0 1206 349" width="1206px" zoomAndPan="magnify"><defs><filter height="300%" id="f1ny3ove1xawqk" width="300%" x="-1" y="-1"><feGaussianBlur result="blurOut" stdDeviation="2.0"/><feColorMatrix in="blurOut" result="blurOut2" type="matrix" values="0 0 0 0 0 0 0 0 0 0 0 0 0 0 0 0 0 0 .4 0"/><feOffset dx="4.0" dy="4.0" in="blurOut2" result="blurOut3"/><feBlend in="SourceGraphic" in2="blurOut3" mode="normal"/></filter></defs><g><!--MD5=[c8375d0abf05781a4d00ac7db9cff037]
cluster host--><polygon fill="#FFFFFF" filter="url(#f1ny3ove1xawqk)" points="378,42,388,32,801,32,801,214,791,224,378,224,378,42" style="stroke: #000000; stroke-width: 1.5;"/><line style="stroke: #000000; stroke-width: 1.5;" x1="791" x2="800" y1="42" y2="33"/><line style="stroke: #000000; stroke-width: 1.5;" x1="378" x2="791" y1="42" y2="42"/><line style="stroke: #000000; stroke-width: 1.5;" x1="791" x2="791" y1="42" y2="224"/><text fill="#000000" font-family="sans-serif" font-size="14" font-weight="bold" lengthAdjust="spacingAndGlyphs" textLength="32" x="569.5" y="59.5332">Host</text><!--MD5=[7c185b1ebc2d5c01e26fffe3c8b89260]
cluster Hypervisor--><polygon fill="#FFFFFF" filter="url(#f1ny3ove1xawqk)" points="410,99,420,89,769,89,769,174,759,184,410,184,410,99" style="stroke: #000000; stroke-width: 1.5;"/><line style="stroke: #000000; stroke-width: 1.5;" x1="759" x2="768" y1="99" y2="90"/><line style="stroke: #000000; stroke-width: 1.5;" x1="410" x2="759" y1="99" y2="99"/><line style="stroke: #000000; stroke-width: 1.5;" x1="759" x2="759" y1="99" y2="184"/><text fill="#000000" font-family="sans-serif" font-size="14" font-weight="bold" lengthAdjust="spacingAndGlyphs" textLength="77" x="547" y="116.5332">Hypervisor</text><!--MD5=[88656e78e5bedad418341b6ececa151e]
cluster AWS--><path d="M858.6375,59.8989 C864.299,48.187 871.8641,48.1116 880.6119,56.5299 C889.3859,45.7497 898.2847,47.5524 904.9592,58.8455 C908.0513,47.5758 916.4619,45.7362 924.418,54.0002 C932.7349,42.6958 940.9641,43.9535 948.5875,54.7584 C953.4832,41.5688 965.1756,42.8943 972.4774,52.2035 C978.9833,43.2204 985.4195,41.8355 993.3354,50.5408 C997.2758,40.0172 1006.7262,38.4865 1013.9012,47.0568 C1022.6569,36.2494 1034.4631,37.8112 1038.4605,51.7745 C1045.893,40.7198 1054.9347,42.9506 1061.628,52.6015 C1068.8355,42.5905 1077.6687,42.879 1082.5336,54.8313 C1089.1981,44.5121 1098.5985,41.9826 1105.9012,54.1687 C1112.0662,45.1982 1120.5316,47.6544 1124.4589,56.4996 C1132.4694,43.8493 1142.965,45.8087 1150.2926,57.2324 C1160.6017,47.5061 1173.4448,49.0644 1176,65 C1178.7292,65.458 1179.3589,66.7096 1177.8194,69.074 C1186.6428,75.2364 1187.7338,81.5619 1178.7558,88.5788 C1190.3698,93.6842 1189.4289,101.8178 1181.2847,109.331 C1191.9906,115.6122 1194.3036,122.5169 1184.3468,131.635 C1192.2012,139.2197 1191.9761,146.2773 1182.0262,151.8146 C1189.9614,159.1619 1189.7333,166.0065 1180.5575,172.116 C1189.9356,184.4574 1184.4224,197.938 1169,200 C1170.2843,199.6642 1171.4365,200.3438 1171.0438,201.8553 C1166.6367,212.0657 1157.6273,213.357 1150.3068,205.1327 C1143.0376,214.5498 1134.3511,213.542 1127.917,204.1392 C1122.3468,216.6908 1113.398,219.5529 1104.0089,207.9133 C1097.812,217.87 1088.2893,215.3685 1083.2818,206.5969 C1077.0704,219.61 1068.1698,221.7045 1058.9076,209.5518 C1052.9868,219.8592 1043.4824,223.1622 1035.4465,211.8466 C1028.4384,221.7463 1020.715,222.383 1014.4469,211.1125 C1008.076,220.2099 1001.1877,221.6932 994.7638,211.1657 C985.9384,221.6337 975.8701,222.7413 968.6574,209.3977 C961.5502,219.3683 955.4009,218.3343 948.638,209.04 C941.8743,218.8079 933.0552,220.5839 926.6292,208.6968 C919.3627,219.3199 908.5086,216.7307 903.6577,206.0875 C896.2821,215.4886 884.9089,214.2925 879.9781,203.255 C867.9763,213.1349 853.164,208.9557 850,193 C851.3489,193.3788 851.7848,194.5939 850.8785,195.7051 C838.7404,188.4989 839.7055,180.939 848.7212,171.822 C838.7953,166.8606 837.4496,157.0476 848.1241,151.4814 C836.5441,148.0601 835.6291,138.3478 843.3133,130.5077 C832.9695,122.0054 832.5215,114.9154 844.7713,107.8681 C836.3406,100.1999 836.93,93.5258 847.3261,88.3179 C834.0362,72.7033 840.3571,64.0635 857,58 C858.529,57.698 859.0064,58.5641 858.6375,59.8989 " fill="#FFFFFF" style="stroke: #000000; stroke-width: 1.5;"/><text fill="#000000" font-family="sans-serif" font-size="14" font-weight="bold" lengthAdjust="spacingAndGlyphs" textLength="31" x="997.5" y="77.5332">AWS</text><!--MD5=[addf083e429417be7ad7bace6a60d70a]
cluster S3--><rect fill="#FFFFFF" filter="url(#f1ny3ove1xawqk)" height="90" style="stroke: #000000; stroke-width: 1.5;" width="294" x="866" y="94"/><path d="M893,95 L893,104.6094 L883,114.6094 L866,114.6094 " fill="none" style="stroke: #000000; stroke-width: 1.5;"/><text fill="#000000" font-family="sans-serif" font-size="14" font-weight="bold" lengthAdjust="spacingAndGlyphs" textLength="17" x="869" y="109.5332">S3</text><!--MD5=[107003500c5c42cbbef62457b4e1bbc7]
entity volume--><rect fill="#FEFECE" filter="url(#f1ny3ove1xawqk)" height="37.6094" rx="35" ry="35" style="stroke: #000000; stroke-width: 1.5;" width="121" x="426" y="130"/><text fill="#000000" font-family="sans-serif" font-size="14" lengthAdjust="spacingAndGlyphs" textLength="101" x="436" y="154.5332">Volume Storage</text><!--MD5=[0f94bc512f7c4f2c54039f460516e1c2]
entity buffer--><rect fill="#FEFECE" filter="url(#f1ny3ove1xawqk)" height="37.6094" rx="35" ry="35" style="stroke: #000000; stroke-width: 1.5;" width="106" x="647" y="130"/><text fill="#000000" font-family="sans-serif" font-size="14" lengthAdjust="spacingAndGlyphs" textLength="86" x="657" y="154.5332">Upload Buffer</text><!--MD5=[6d3f5d29affa68ec576e21cfd8ead3e7]
entity cloud_volume--><rect fill="#FEFECE" filter="url(#f1ny3ove1xawqk)" height="37.6094" rx="35" ry="35" style="stroke: #000000; stroke-width: 1.5;" width="121" x="882" y="130"/><text fill="#000000" font-family="sans-serif" font-size="14" lengthAdjust="spacingAndGlyphs" textLength="101" x="892" y="154.5332">Volume Storage</text><!--MD5=[f51aa7a60d400d87eefdb10789214909]
entity snapshot--><polygon fill="#FEFECE" filter="url(#f1ny3ove1xawqk)" points="1064,130,1064,167.6094,1144,167.6094,1144,140,1134,130,1064,130" style="stroke: #000000; stroke-width: 1.5;"/><path d="M1134,130 L1134,140 L1144,140 " fill="#FEFECE" style="stroke: #000000; stroke-width: 1.5;"/><text fill="#000000" font-family="sans-serif" font-size="14" lengthAdjust="spacingAndGlyphs" textLength="60" x="1074" y="154.5332">Snapshot</text><!--MD5=[5f2f9dbbee692058d60489180693f774]
entity users--><ellipse cx="44" cy="83" fill="#FEFECE" filter="url(#f1ny3ove1xawqk)" rx="8" ry="8" style="stroke: #A80036; stroke-width: 1.5;"/><path d="M44,91 L44,118 M31,99 L57,99 M44,118 L31,133 M44,118 L57,133 " fill="none" filter="url(#f1ny3ove1xawqk)" style="stroke: #A80036; stroke-width: 1.5;"/><text fill="#000000" font-family="sans-serif" font-size="14" lengthAdjust="spacingAndGlyphs" textLength="36" x="26" y="153.0332">Users</text><!--MD5=[4a65e84059005d12693a083370a06717]
entity client--><polygon fill="#FEFECE" filter="url(#f1ny3ove1xawqk)" points="6,202,16,192,82,192,82,229.6094,72,239.6094,6,239.6094,6,202" style="stroke: #000000; stroke-width: 1.5;"/><line style="stroke: #000000; stroke-width: 1.5;" x1="72" x2="81" y1="202" y2="193"/><line style="stroke: #000000; stroke-width: 1.5;" x1="6" x2="72" y1="202" y2="202"/><line style="stroke: #000000; stroke-width: 1.5;" x1="72" x2="72" y1="202" y2="239.6094"/><text fill="#000000" font-family="sans-serif" font-size="14" lengthAdjust="spacingAndGlyphs" textLength="36" x="21" y="226.5332">Client</text><!--MD5=[4541fb81c80c07473fe4b07432ef0971]
entity app--><polygon fill="#FEFECE" filter="url(#f1ny3ove1xawqk)" points="143,202,153,192,298,192,298,229.6094,288,239.6094,143,239.6094,143,202" style="stroke: #000000; stroke-width: 1.5;"/><line style="stroke: #000000; stroke-width: 1.5;" x1="288" x2="297" y1="202" y2="193"/><line style="stroke: #000000; stroke-width: 1.5;" x1="143" x2="288" y1="202" y2="202"/><line style="stroke: #000000; stroke-width: 1.5;" x1="288" x2="288" y1="202" y2="239.6094"/><text fill="#000000" font-family="sans-serif" font-size="14" lengthAdjust="spacingAndGlyphs" textLength="115" x="158" y="226.5332">Application Server</text><!--MD5=[a5a6ae0ba01c8a4589ab26bd33e87aad]
entity storage--><rect fill="#FEFECE" filter="url(#f1ny3ove1xawqk)" height="90.4375" rx="35" ry="35" style="stroke: #000000; stroke-width: 1.5;" width="184" x="608" y="248"/><text fill="#000000" font-family="sans-serif" font-size="14" font-weight="bold" lengthAdjust="spacingAndGlyphs" textLength="128" x="618" y="272.5332">Storage Appliance</text><text fill="#000000" font-family="sans-serif" font-size="14" lengthAdjust="spacingAndGlyphs" textLength="138" x="618" y="290.1426">Storage Area Network</text><text fill="#000000" font-family="sans-serif" font-size="14" lengthAdjust="spacingAndGlyphs" textLength="151" x="618" y="307.752">Direct Attached Storage</text><text fill="#000000" font-family="sans-serif" font-size="14" lengthAdjust="spacingAndGlyphs" textLength="164" x="618" y="325.3613">Network Attached Storage</text><!--MD5=[91ac7d449b04800bf197b57217ed7528]
link cloud_volume to snapshot--><path d="M1003.346,149 C1023.5,149 1045.47,149 1063.63,149 " fill="none" id="cloud_volume-snapshot" style="stroke: #A80036; stroke-width: 1.0;"/><!--MD5=[7f58cd4c9ad5dfbdfc55d0ffb60824da]
link users to client--><path d="M44,161.919 C44,170.184 44,178.449 44,186.714 " fill="none" id="users-client" style="stroke: #A80036; stroke-width: 1.0;"/><polygon fill="#A80036" points="44,191.934,48,182.934,44,186.934,40,182.934,44,191.934" style="stroke: #A80036; stroke-width: 1.0;"/><polygon fill="#A80036" points="44,156.773,40,165.773,44,161.773,48,165.773,44,156.773" style="stroke: #A80036; stroke-width: 1.0;"/><!--MD5=[e5f84f83eb3875a15e3842a3b642dfc2]
link client to app--><path d="M87.0936,216 C102.2458,216 119.906,216 137.298,216 " fill="none" id="client-app" style="stroke: #A80036; stroke-width: 1.0;"/><polygon fill="#A80036" points="142.684,216,133.684,212,137.684,216,133.684,220,142.684,216" style="stroke: #A80036; stroke-width: 1.0;"/><polygon fill="#A80036" points="82.007,216,91.007,220,87.007,216,91.007,212,82.007,216" style="stroke: #A80036; stroke-width: 1.0;"/><!--MD5=[716418ec59c2598af60c1c8217bd6ac7]
link app to host--><path d="M303.658,216 C322.7208,216 343.4091,216 363.7695,216 C366.3146,216 368.8545,216 371.3855,216 C372.651,216 373.9143,216 375.1748,216 C375.8051,216 376.4347,216 377.0636,216 " fill="none" id="app-host" style="stroke: #A80036; stroke-width: 1.0;"/><polygon fill="#A80036" points="377.0636,216,368.0636,212,372.0636,216,368.0636,220,377.0636,216" style="stroke: #A80036; stroke-width: 1.0;"/><polygon fill="#A80036" points="298.214,216,307.214,220,303.214,216,307.214,212,298.214,216" style="stroke: #A80036; stroke-width: 1.0;"/><text fill="#000000" font-family="sans-serif" font-size="13" lengthAdjust="spacingAndGlyphs" textLength="24" x="329" y="212.4951">ICSI</text><!--MD5=[08e755b18e47418dbca29638804dfbd6]
link host to storage--><path d="M509.646,224.0626 C510.1922,224.2615 510.7466,224.4633 511.309,224.6681 C515.8082,226.3061 520.818,228.13 526.2256,230.0987 C547.856,237.9735 575.8505,248.1654 602.983,258.0435 " fill="none" id="host-storage" style="stroke: #A80036; stroke-width: 1.0;"/><polygon fill="#A80036" points="607.886,259.8283,600.7967,252.9915,603.1875,258.1183,598.0607,260.5091,607.886,259.8283" style="stroke: #A80036; stroke-width: 1.0;"/><polygon fill="#A80036" points="509.646,224.0626,516.7346,230.9002,514.3443,225.7731,519.4714,223.3828,509.646,224.0626" style="stroke: #A80036; stroke-width: 1.0;"/><!--MD5=[c474fcdea4827ac52dc768e433f19285]
link volume to buffer--><path d="M552.468,149 C581.02,149 614.257,149 641.851,149 " fill="none" id="volume-buffer" style="stroke: #A80036; stroke-width: 1.0;"/><polygon fill="#A80036" points="646.936,149,637.936,145,641.936,149,637.936,153,646.936,149" style="stroke: #A80036; stroke-width: 1.0;"/><polygon fill="#A80036" points="547.259,149,556.259,153,552.259,149,556.259,145,547.259,149" style="stroke: #A80036; stroke-width: 1.0;"/><!--MD5=[5305826c467a9ecbcc712e52c2bfec41]
link buffer to cloud_volume--><path d="M758.594,149 C794.074,149 839.652,149 876.434,149 " fill="none" id="buffer-cloud_volume" style="stroke: #A80036; stroke-width: 1.0;"/><polygon fill="#A80036" points="881.795,149,872.795,145,876.795,149,872.795,153,881.795,149" style="stroke: #A80036; stroke-width: 1.0;"/><polygon fill="#A80036" points="753.185,149,762.185,153,758.185,149,762.185,145,753.185,149" style="stroke: #A80036; stroke-width: 1.0;"/><!--MD5=[de5884bac199944d62e7763598501762]
@startuml Volume Gateway - Cache Volumes
left to right direction
actor "Users" as users
node "Client" as client
node "Application Server" as app
node "Host" as host {
  node "Hypervisor" {
    storage "Volume Storage" as volume
    storage "Upload Buffer" as buffer
  }
}
storage "**Storage Appliance**\nStorage Area Network\nDirect Attached Storage\nNetwork Attached Storage" as storage
cloud "AWS" {
  frame "S3" {
    storage "Volume Storage" as cloud_volume
    file "Snapshot" as snapshot

    cloud_volume - - snapshot
  }
}

users <-> client
client <- -> app
app <- -> host: ICSI
host <- -> storage
volume <- -> buffer
buffer <- -> cloud_volume

@enduml

PlantUML version 1.2020.10(Sun May 17 05:35:57 EDT 2020)
(GPL source distribution)
Java Runtime: Java(TM) SE Runtime Environment
JVM: Java HotSpot(TM) 64-Bit Server VM
Java Version: 1.8.0_221-b11
Operating System: Windows 10
Default Encoding: Cp1252
Language: en
Country: US
--></g></svg>