<?xml version="1.0" encoding="UTF-8" standalone="no"?><svg xmlns="http://www.w3.org/2000/svg" xmlns:xlink="http://www.w3.org/1999/xlink" contentScriptType="application/ecmascript" contentStyleType="text/css" height="349px" preserveAspectRatio="none" style="width:1015px;height:349px;" version="1.1" viewBox="0 0 1015 349" width="1015px" zoomAndPan="magnify"><defs><filter height="300%" id="f2usrcjx1nwii" width="300%" x="-1" y="-1"><feGaussianBlur result="blurOut" stdDeviation="2.0"/><feColorMatrix in="blurOut" result="blurOut2" type="matrix" values="0 0 0 0 0 0 0 0 0 0 0 0 0 0 0 0 0 0 .4 0"/><feOffset dx="4.0" dy="4.0" in="blurOut2" result="blurOut3"/><feBlend in="SourceGraphic" in2="blurOut3" mode="normal"/></filter></defs><g><!--MD5=[c8375d0abf05781a4d00ac7db9cff037]
cluster host--><polygon fill="#FFFFFF" filter="url(#f2usrcjx1nwii)" points="378,42,388,32,801,32,801,214,791,224,378,224,378,42" style="stroke: #000000; stroke-width: 1.5;"/><line style="stroke: #000000; stroke-width: 1.5;" x1="791" x2="800" y1="42" y2="33"/><line style="stroke: #000000; stroke-width: 1.5;" x1="378" x2="791" y1="42" y2="42"/><line style="stroke: #000000; stroke-width: 1.5;" x1="791" x2="791" y1="42" y2="224"/><text fill="#000000" font-family="sans-serif" font-size="14" font-weight="bold" lengthAdjust="spacingAndGlyphs" textLength="32" x="569.5" y="59.5332">Host</text><!--MD5=[7c185b1ebc2d5c01e26fffe3c8b89260]
cluster Hypervisor--><polygon fill="#FFFFFF" filter="url(#f2usrcjx1nwii)" points="410,99,420,89,769,89,769,174,759,184,410,184,410,99" style="stroke: #000000; stroke-width: 1.5;"/><line style="stroke: #000000; stroke-width: 1.5;" x1="759" x2="768" y1="99" y2="90"/><line style="stroke: #000000; stroke-width: 1.5;" x1="410" x2="759" y1="99" y2="99"/><line style="stroke: #000000; stroke-width: 1.5;" x1="759" x2="759" y1="99" y2="184"/><text fill="#000000" font-family="sans-serif" font-size="14" font-weight="bold" lengthAdjust="spacingAndGlyphs" textLength="77" x="547" y="116.5332">Hypervisor</text><!--MD5=[88656e78e5bedad418341b6ececa151e]
cluster AWS--><path d="M858.4884,59.3519 C861.8076,53.3783 865.706,52.9933 870.2261,58.0771 C874.3146,50.6753 878.575,50.749 883.9419,56.7707 C886.7303,50.2396 891.377,48.3072 897.196,53.2787 C900.5189,47.9223 904.6609,46.2288 909.323,51.7915 C912.2221,45.3261 918.7453,44.0851 922.5421,50.8977 C927.3685,45.5806 933.5178,45.9893 936.9892,52.5463 C940.8234,47.9344 946.8242,48.666 948.9412,54.5094 C953.9598,48.4046 959.1079,49.0883 963.125,55.6325 C967.0291,51.6209 971.544,51.739 974.0459,57.2421 C983.0437,48.8814 992.5375,53.979 994,65 C994.5785,65.2062 994.5977,65.5544 994.2742,66.0063 C1001.2326,68.7439 1001.4128,75.6267 995.9106,79.8385 C1001.0153,83.3885 1001.6665,88.087 996.3699,92.0288 C1001.8943,96.7067 1002.6876,101.412 995.7836,105.551 C1001.1896,108.7409 1001.0828,113.3805 995.6604,116.4479 C1001.8922,119.8789 1001.5697,126.0202 996.003,129.755 C1002.5742,132.5029 1003.3345,137.7142 997.4178,141.915 C1003.9286,146.8296 1001.7437,151.9356 995.4002,154.8442 C1002.4347,158.2497 1002.144,164.8869 996.6255,169.3526 C1001.4898,174.01 1001.7087,178.0743 995.2795,181.478 C1001.4994,191.4618 999.5468,198.4051 987,200 C987.7543,200.3104 987.9911,200.8649 987.2874,201.4619 C983.1758,206.5036 978.3484,207.1431 975.1228,200.5366 C972.1011,207.33 967.8511,207.6305 962.6604,202.8776 C959.0302,208.547 952.7243,207.9381 949.8252,202.0646 C945.9234,208.4753 940.1133,208.6644 935.4121,203.0205 C931.4035,209.9089 926.3928,209.6355 922.1499,203.2546 C919.0234,209.3284 913.8422,208.5729 910.8634,203.1102 C907.164,209.9057 901.1871,209.1349 897.7202,202.8761 C892.9074,209.3317 887.5028,206.927 884.5522,200.9101 C880.7267,206.9414 875.63,206.954 871.322,201.4641 C860.7896,208.2052 852.3657,206.8318 850,193 C850.1466,193.0445 850.1785,193.1548 850.0911,193.2764 C844.324,189.3902 845.5306,185.5724 850.7149,182.309 C842.7844,179.2895 842.8916,174.6797 848.2194,169.1465 C840.9125,166.1482 841.2267,160.088 847.2119,156.0658 C839.3474,151.779 840.6038,147.0312 846.2421,141.8248 C839.5821,138.3918 838.8082,134.1323 844.9638,129.3827 C839.9361,125.3119 840.8926,119.7642 846.3427,116.8459 C840.2377,112.5124 840.2785,107.0414 847.6511,104.0905 C842.793,100.0169 842.4242,96.2476 848.1035,92.5885 C842.2441,87.7233 844.0861,80.9864 850.6082,78.2901 C843.771,69.6814 844.3452,60.4684 857,58 C858.0372,57.6838 858.775,58.2108 858.4884,59.3519 " fill="#FFFFFF" style="stroke: #000000; stroke-width: 1.5;"/><text fill="#000000" font-family="sans-serif" font-size="14" font-weight="bold" lengthAdjust="spacingAndGlyphs" textLength="31" x="906.5" y="77.5332">AWS</text><!--MD5=[addf083e429417be7ad7bace6a60d70a]
cluster S3--><rect fill="#FFFFFF" filter="url(#f2usrcjx1nwii)" height="90" style="stroke: #000000; stroke-width: 1.5;" width="112" x="866" y="94"/><path d="M893,95 L893,104.6094 L883,114.6094 L866,114.6094 " fill="none" style="stroke: #000000; stroke-width: 1.5;"/><text fill="#000000" font-family="sans-serif" font-size="14" font-weight="bold" lengthAdjust="spacingAndGlyphs" textLength="17" x="869" y="109.5332">S3</text><!--MD5=[107003500c5c42cbbef62457b4e1bbc7]
entity volume--><rect fill="#FEFECE" filter="url(#f2usrcjx1nwii)" height="37.6094" rx="35" ry="35" style="stroke: #000000; stroke-width: 1.5;" width="121" x="426" y="130"/><text fill="#000000" font-family="sans-serif" font-size="14" lengthAdjust="spacingAndGlyphs" textLength="101" x="436" y="154.5332">Volume Storage</text><!--MD5=[0f94bc512f7c4f2c54039f460516e1c2]
entity buffer--><rect fill="#FEFECE" filter="url(#f2usrcjx1nwii)" height="37.6094" rx="35" ry="35" style="stroke: #000000; stroke-width: 1.5;" width="106" x="647" y="130"/><text fill="#000000" font-family="sans-serif" font-size="14" lengthAdjust="spacingAndGlyphs" textLength="86" x="657" y="154.5332">Upload Buffer</text><!--MD5=[f51aa7a60d400d87eefdb10789214909]
entity snapshot--><polygon fill="#FEFECE" filter="url(#f2usrcjx1nwii)" points="882,130,882,167.6094,962,167.6094,962,140,952,130,882,130" style="stroke: #000000; stroke-width: 1.5;"/><path d="M952,130 L952,140 L962,140 " fill="#FEFECE" style="stroke: #000000; stroke-width: 1.5;"/><text fill="#000000" font-family="sans-serif" font-size="14" lengthAdjust="spacingAndGlyphs" textLength="60" x="892" y="154.5332">Snapshot</text><!--MD5=[5f2f9dbbee692058d60489180693f774]
entity users--><ellipse cx="44" cy="83" fill="#FEFECE" filter="url(#f2usrcjx1nwii)" rx="8" ry="8" style="stroke: #A80036; stroke-width: 1.5;"/><path d="M44,91 L44,118 M31,99 L57,99 M44,118 L31,133 M44,118 L57,133 " fill="none" filter="url(#f2usrcjx1nwii)" style="stroke: #A80036; stroke-width: 1.5;"/><text fill="#000000" font-family="sans-serif" font-size="14" lengthAdjust="spacingAndGlyphs" textLength="36" x="26" y="153.0332">Users</text><!--MD5=[4a65e84059005d12693a083370a06717]
entity client--><polygon fill="#FEFECE" filter="url(#f2usrcjx1nwii)" points="6,202,16,192,82,192,82,229.6094,72,239.6094,6,239.6094,6,202" style="stroke: #000000; stroke-width: 1.5;"/><line style="stroke: #000000; stroke-width: 1.5;" x1="72" x2="81" y1="202" y2="193"/><line style="stroke: #000000; stroke-width: 1.5;" x1="6" x2="72" y1="202" y2="202"/><line style="stroke: #000000; stroke-width: 1.5;" x1="72" x2="72" y1="202" y2="239.6094"/><text fill="#000000" font-family="sans-serif" font-size="14" lengthAdjust="spacingAndGlyphs" textLength="36" x="21" y="226.5332">Client</text><!--MD5=[4541fb81c80c07473fe4b07432ef0971]
entity app--><polygon fill="#FEFECE" filter="url(#f2usrcjx1nwii)" points="143,202,153,192,298,192,298,229.6094,288,239.6094,143,239.6094,143,202" style="stroke: #000000; stroke-width: 1.5;"/><line style="stroke: #000000; stroke-width: 1.5;" x1="288" x2="297" y1="202" y2="193"/><line style="stroke: #000000; stroke-width: 1.5;" x1="143" x2="288" y1="202" y2="202"/><line style="stroke: #000000; stroke-width: 1.5;" x1="288" x2="288" y1="202" y2="239.6094"/><text fill="#000000" font-family="sans-serif" font-size="14" lengthAdjust="spacingAndGlyphs" textLength="115" x="158" y="226.5332">Application Server</text><!--MD5=[a5a6ae0ba01c8a4589ab26bd33e87aad]
entity storage--><rect fill="#FEFECE" filter="url(#f2usrcjx1nwii)" height="90.4375" rx="35" ry="35" style="stroke: #000000; stroke-width: 1.5;" width="184" x="608" y="248"/><text fill="#000000" font-family="sans-serif" font-size="14" font-weight="bold" lengthAdjust="spacingAndGlyphs" textLength="128" x="618" y="272.5332">Storage Appliance</text><text fill="#000000" font-family="sans-serif" font-size="14" lengthAdjust="spacingAndGlyphs" textLength="138" x="618" y="290.1426">Storage Area Network</text><text fill="#000000" font-family="sans-serif" font-size="14" lengthAdjust="spacingAndGlyphs" textLength="151" x="618" y="307.752">Direct Attached Storage</text><text fill="#000000" font-family="sans-serif" font-size="14" lengthAdjust="spacingAndGlyphs" textLength="164" x="618" y="325.3613">Network Attached Storage</text><!--MD5=[7f58cd4c9ad5dfbdfc55d0ffb60824da]
link users to client--><path d="M44,161.919 C44,170.184 44,178.449 44,186.714 " fill="none" id="users-client" style="stroke: #A80036; stroke-width: 1.0;"/><polygon fill="#A80036" points="44,191.934,48,182.934,44,186.934,40,182.934,44,191.934" style="stroke: #A80036; stroke-width: 1.0;"/><polygon fill="#A80036" points="44,156.773,40,165.773,44,161.773,48,165.773,44,156.773" style="stroke: #A80036; stroke-width: 1.0;"/><!--MD5=[e5f84f83eb3875a15e3842a3b642dfc2]
link client to app--><path d="M87.0936,216 C102.2458,216 119.906,216 137.298,216 " fill="none" id="client-app" style="stroke: #A80036; stroke-width: 1.0;"/><polygon fill="#A80036" points="142.684,216,133.684,212,137.684,216,133.684,220,142.684,216" style="stroke: #A80036; stroke-width: 1.0;"/><polygon fill="#A80036" points="82.007,216,91.007,220,87.007,216,91.007,212,82.007,216" style="stroke: #A80036; stroke-width: 1.0;"/><!--MD5=[716418ec59c2598af60c1c8217bd6ac7]
link app to host--><path d="M303.658,216 C322.7208,216 343.4091,216 363.7695,216 C366.3146,216 368.8545,216 371.3855,216 C372.651,216 373.9143,216 375.1748,216 C375.8051,216 376.4347,216 377.0636,216 " fill="none" id="app-host" style="stroke: #A80036; stroke-width: 1.0;"/><polygon fill="#A80036" points="377.0636,216,368.0636,212,372.0636,216,368.0636,220,377.0636,216" style="stroke: #A80036; stroke-width: 1.0;"/><polygon fill="#A80036" points="298.214,216,307.214,220,303.214,216,307.214,212,298.214,216" style="stroke: #A80036; stroke-width: 1.0;"/><text fill="#000000" font-family="sans-serif" font-size="13" lengthAdjust="spacingAndGlyphs" textLength="24" x="329" y="212.4951">ICSI</text><!--MD5=[08e755b18e47418dbca29638804dfbd6]
link host to storage--><path d="M509.646,224.0626 C510.1922,224.2615 510.7466,224.4633 511.309,224.6681 C515.8082,226.3061 520.818,228.13 526.2256,230.0987 C547.856,237.9735 575.8505,248.1654 602.983,258.0435 " fill="none" id="host-storage" style="stroke: #A80036; stroke-width: 1.0;"/><polygon fill="#A80036" points="607.886,259.8283,600.7967,252.9915,603.1875,258.1183,598.0607,260.5091,607.886,259.8283" style="stroke: #A80036; stroke-width: 1.0;"/><polygon fill="#A80036" points="509.646,224.0626,516.7346,230.9002,514.3443,225.7731,519.4714,223.3828,509.646,224.0626" style="stroke: #A80036; stroke-width: 1.0;"/><!--MD5=[c474fcdea4827ac52dc768e433f19285]
link volume to buffer--><path d="M552.468,149 C581.02,149 614.257,149 641.851,149 " fill="none" id="volume-buffer" style="stroke: #A80036; stroke-width: 1.0;"/><polygon fill="#A80036" points="646.936,149,637.936,145,641.936,149,637.936,153,646.936,149" style="stroke: #A80036; stroke-width: 1.0;"/><polygon fill="#A80036" points="547.259,149,556.259,153,552.259,149,556.259,145,547.259,149" style="stroke: #A80036; stroke-width: 1.0;"/><!--MD5=[f29fda9359a5f36a706b151e4e4a4191]
link buffer to snapshot--><path d="M758.306,149 C795.239,149 842.549,149 876.62,149 " fill="none" id="buffer-snapshot" style="stroke: #A80036; stroke-width: 1.0;"/><polygon fill="#A80036" points="881.971,149,872.971,145,876.971,149,872.971,153,881.971,149" style="stroke: #A80036; stroke-width: 1.0;"/><polygon fill="#A80036" points="753.137,149,762.137,153,758.137,149,762.137,145,753.137,149" style="stroke: #A80036; stroke-width: 1.0;"/><!--MD5=[285a17ad6112b387447d39943ba06ad2]
@startuml Volume Gateway - Stored Volumes
left to right direction
actor "Users" as users
node "Client" as client
node "Application Server" as app
node "Host" as host {
  node "Hypervisor" {
    storage "Volume Storage" as volume
    storage "Upload Buffer" as buffer
  }
}
storage "**Storage Appliance**\nStorage Area Network\nDirect Attached Storage\nNetwork Attached Storage" as storage
cloud "AWS" {
  frame "S3" {
    file "Snapshot" as snapshot
  }
}

users <-> client
client <- -> app
app <- -> host: ICSI
host <- -> storage
volume <- -> buffer
buffer <- -> snapshot

@enduml

PlantUML version 1.2020.10(Sun May 17 05:35:57 EDT 2020)
(GPL source distribution)
Java Runtime: Java(TM) SE Runtime Environment
JVM: Java HotSpot(TM) 64-Bit Server VM
Java Version: 1.8.0_221-b11
Operating System: Windows 10
Default Encoding: Cp1252
Language: en
Country: US
--></g></svg>